# xmcd CD database file
# Copyright (C) 1993-1996 Ti Kan
#
# Track frame offsets:
# 150
# 11117
# 20900
# 30750
# 40842
# 52577
# 63387
# 72015
# 83237
# 91490
# 102025
# 115047
# 129035
# 138460
# 149357
# 159310
# 170897
# 183497
# 194077
# 201975
# 213837
# 224517
# 235145
# 248812
#
# Disc length: 3471 seconds
#
# Revision: 0
# Processed by: cddbd v1.4b41PL1 Copyright (c) Steve Scherf et al.
# Submitted via: inCDius 1.1b5
#
DISCID=510d8d18
DTITLE=Rick Nelson - Country Music
DYEAR=1900
DGENRE=
TTITLE0=Bright Lights And Country Music
TTITLE1=Big Chief Buffalo Nickel (Desert Blue)
TTITLE2=Welcome To My World
TTITLE3=Night Train To Memphis
TTITLE4=Alone
TTITLE5=Mystery Train
TTITLE6=Take A City Bride
TTITLE7=I'm A Fool To Care
TTITLE8=Things You Gave Me
TTITLE9=No Vacancy
TTITLE10=Funny How The Time Slips Away
TTITLE11=Louisiana Man
TTITLE12=Truck Drivin' Man
TTITLE13=Here I Am
TTITLE14=Kentucky Means Paradise
TTITLE15=Take These Chains From My Heart
TTITLE16=You Win Again
TTITLE17=You Just Can't Quit
TTITLE18=The Bridge Washed Out
TTITLE19=(I Heard That) Lonesome Whistle Blow
TTITLE20=Hello Walls
TTITLE21=Walkin' Down The Line
TTITLE22=Congratulations
TTITLE23=Salty Dog
EXTD=
EXTT0=
EXTT1=
EXTT2=
EXTT3=
EXTT4=
EXTT5=
EXTT6=
EXTT7=
EXTT8=
EXTT9=
EXTT10=
EXTT11=
EXTT12=
EXTT13=
EXTT14=
EXTT15=
EXTT16=
EXTT17=
EXTT18=
EXTT19=
EXTT20=
EXTT21=
EXTT22=
EXTT23=
PLAYORDER=
